# xmcd
#
# Track frame offsets:
#	150
#	15960
#	30905
#
# Disc length: 609 seconds
# Revision: 4
# Processed by: cddbd v1.5.2PL0 Copyright (c) Steve Scherf et al.
# Submitted via: dBpowerAMP V12.0
#
DISCID=0e025f03
DTITLE=Michelle Wright - Compliments
DYEAR=1997
DGENRE=Canadian
TTITLE0=Safe In The Arms Of Love
TTITLE1=Nobody's Girl
TTITLE2=What Love Looks Like
EXTD=
EXTT0=
EXTT1=
EXTT2=
PLAYORDER=
